<svg width="32" height="32" viewBox="0 0 32 32" fill="none" xmlns="http://www.w3.org/2000/svg">
<path d="M16.625 12.875C16.625 13.2202 16.3452 13.5 16 13.5C15.6548 13.5 15.375 13.2202 15.375 12.875C15.375 12.5298 15.6548 12.25 16 12.25C16.3452 12.25 16.625 12.5298 16.625 12.875Z" fill="#FB7015"/>
<path d="M31.375 1H9.375C4.20557 1 0 5.20557 0 10.375C0 15.5444 4.20557 19.75 9.375 19.75H22.625C23.6589 19.75 24.5 20.5911 24.5 21.625C24.5 22.6589 23.6589 23.5 22.625 23.5H8.65869C7.94409 23.5 7.30151 23.897 6.98145 24.5364L6.14355 26.2134C5.82373 26.8528 5.18091 27.25 4.46631 27.25H1.875C0.841064 27.25 0 28.0911 0 29.125V30.375C0 30.7202 0.279785 31 0.625 31H22.625C27.7944 31 32 26.7944 32 21.625C32 16.4556 27.7944 12.25 22.625 12.25H18.8125C18.4675 12.25 18.1875 12.5298 18.1875 12.875C18.1875 13.2202 18.4675 13.5 18.8125 13.5H22.625C26.8948 13.5 30.406 16.8108 30.7261 21H25.687C25.3967 19.5752 24.1343 18.5 22.625 18.5H9.375C5.10522 18.5 1.59399 15.1892 1.27393 11H6.31299C6.60327 12.4248 7.86572 13.5 9.375 13.5H13.1875C13.5325 13.5 13.8125 13.2202 13.8125 12.875C13.8125 12.5298 13.5325 12.25 13.1875 12.25H9.375C8.34106 12.25 7.5 11.4089 7.5 10.375C7.5 9.34106 8.34106 8.5 9.375 8.5H31.375C31.7202 8.5 32 8.22021 32 7.875V1.625C32 1.27979 31.7202 1 31.375 1V1ZM1.25 29.125C1.25 28.7803 1.53027 28.5 1.875 28.5H4.46631C5.65723 28.5 6.72827 27.8381 7.26172 26.7725L8.09961 25.0955C8.2063 24.8823 8.42041 24.75 8.65869 24.75H13.5V29.75H1.25V29.125ZM22.625 29.75H14.75V24.75H22.625C24.134 24.75 25.3967 23.6741 25.687 22.2493H30.7261C30.406 26.4387 26.8948 29.75 22.625 29.75ZM6.31299 9.75H1.27393C1.59399 5.56079 5.10522 2.25 9.375 2.25H23.25V7.25H9.375C7.86597 7.25 6.60327 8.3252 6.31299 9.75ZM30.75 7.25H24.5V2.25H30.75V7.25Z" fill="#FB7015"/>
</svg>
