<svg width="32" height="32" viewBox="0 0 32 32" fill="none" xmlns="http://www.w3.org/2000/svg">
<path d="M16.625 31.375C16.625 31.7202 16.3452 32 16 32C15.6548 32 15.375 31.7202 15.375 31.375C15.375 31.0298 15.6548 30.75 16 30.75C16.3452 30.75 16.625 31.0298 16.625 31.375Z" fill="#00ACDD"/>
<path d="M30.125 17.25H29.9375V16C29.9375 14.6216 28.8162 13.5 27.4375 13.5C26.0591 13.5 24.9375 14.6216 24.9375 16V17.25H22.25V16C22.25 14.6216 21.1287 13.5 19.75 13.5C18.3716 13.5 17.25 14.6216 17.25 16V17.25H12.875V8.75H19.75C20.0952 8.75 20.375 8.47021 20.375 8.125C20.375 3.64502 16.7302 0 12.25 0C7.77002 0 4.125 3.64502 4.125 8.125C4.125 8.47021 4.40479 8.75 4.75 8.75H11.625V17.25H8.9375V14.125C8.9375 13.7798 8.65771 13.5 8.3125 13.5H2.75903L1.06689 11.8081C0.822998 11.564 0.427246 11.564 0.183105 11.8081C-0.0610351 12.0522 -0.0610351 12.448 0.183105 12.6921L1.875 14.384V17.25C0.841064 17.25 0 18.0911 0 19.125V31.375C0 31.7202 0.279785 32 0.625 32H13.1875C13.5327 32 13.8125 31.7202 13.8125 31.375C13.8125 31.0298 13.5327 30.75 13.1875 30.75H1.25V26.9138C1.61816 27.1272 2.04492 27.25 2.5 27.25H6.4375C7.18359 27.25 7.854 26.9211 8.3125 26.4009C8.771 26.9211 9.44141 27.25 10.1875 27.25H14.125C14.8711 27.25 15.5415 26.9211 16 26.4009C16.4585 26.9211 17.1289 27.25 17.875 27.25H21.8125C22.5586 27.25 23.229 26.9211 23.6875 26.4009C24.146 26.9211 24.8164 27.25 25.5625 27.25H29.5C29.9553 27.25 30.3821 27.1272 30.75 26.9138V30.75H18.8125C18.4673 30.75 18.1875 31.0298 18.1875 31.375C18.1875 31.7202 18.4673 32 18.8125 32H31.375C31.7202 32 32 31.7202 32 31.375V19.125C32 18.0911 31.1589 17.25 30.125 17.25ZM12.25 1.25C13.0967 1.25 14.3074 3.66431 14.4277 7.5H10.0725C10.1929 3.66431 11.4033 1.25 12.25 1.25ZM19.0969 7.5H15.6772C15.6211 5.61865 15.2717 3.20483 14.3535 1.5791C16.9282 2.40845 18.8452 4.71753 19.0969 7.5ZM10.1465 1.5791C9.22852 3.20435 8.87915 5.61768 8.82275 7.5H5.40332C5.65503 4.71753 7.57178 2.40845 10.1465 1.5791ZM26.1875 16C26.1875 15.3108 26.7483 14.75 27.4375 14.75C28.1267 14.75 28.6875 15.3108 28.6875 16V17.25H26.1875V16ZM24.9375 21H18.5V18.5H24.9375V21ZM18.5 16C18.5 15.3108 19.0608 14.75 19.75 14.75C20.4392 14.75 21 15.3108 21 16V17.25H18.5V16ZM3.125 14.75H7.6875V17.25H3.125V14.75ZM16.625 24.75C16.625 24.4048 16.3452 24.125 16 24.125C15.6548 24.125 15.375 24.4048 15.375 24.75C15.375 25.4392 14.8142 26 14.125 26H10.1875C9.49829 26 8.9375 25.4392 8.9375 24.75C8.9375 24.4048 8.65771 24.125 8.3125 24.125C7.96729 24.125 7.6875 24.4048 7.6875 24.75C7.6875 25.4392 7.12671 26 6.4375 26H2.5C1.81079 26 1.25 25.4392 1.25 24.75V19.125C1.25 18.7805 1.53052 18.5 1.875 18.5H17.25V25.8308C16.877 25.6143 16.625 25.2114 16.625 24.75ZM24.3125 24.75C24.3125 24.4048 24.0327 24.125 23.6875 24.125C23.3423 24.125 23.0625 24.4048 23.0625 24.75C23.0625 25.4392 22.5017 26 21.8125 26H18.5V22.25H24.9375V25.8308C24.5645 25.6143 24.3125 25.2114 24.3125 24.75ZM29.5 26H26.1875V18.5H30.125C30.4697 18.5 30.75 18.7805 30.75 19.125V24.75C30.75 25.4392 30.1892 26 29.5 26Z" fill="#00ACDD"/>
</svg>
