<svg width="32" height="32" viewBox="0 0 32 32" fill="none" xmlns="http://www.w3.org/2000/svg">
<path d="M31.375 15C31.0298 15 30.75 15.2798 30.75 15.625C30.75 16.3142 30.1892 16.875 29.5 16.875H25.5625C24.8733 16.875 24.3125 16.3142 24.3125 15.625C24.3125 15.2798 24.0327 15 23.6875 15C23.3423 15 23.0625 15.2798 23.0625 15.625C23.0625 16.3142 22.5017 16.875 21.8125 16.875H17.875C17.1858 16.875 16.625 16.3142 16.625 15.625C16.625 15.2798 16.3452 15 16 15C15.6548 15 15.375 15.2798 15.375 15.625C15.375 16.3142 14.8142 16.875 14.125 16.875H10.1875C9.49829 16.875 8.9375 16.3142 8.9375 15.625C8.9375 15.2798 8.65771 15 8.3125 15C7.96729 15 7.6875 15.2798 7.6875 15.625C7.6875 16.3142 7.12671 16.875 6.4375 16.875H2.5C1.81079 16.875 1.25 16.3142 1.25 15.625C1.25 15.2798 0.970215 15 0.625 15C0.279785 15 0 15.2798 0 15.625V31.375C0 31.7202 0.279785 32 0.625 32H13.1875C13.5327 32 13.8125 31.7202 13.8125 31.375C13.8125 31.0298 13.5327 30.75 13.1875 30.75H1.25V27.2886C1.61792 27.5022 2.04492 27.625 2.5 27.625H6.4375C7.18359 27.625 7.854 27.2959 8.3125 26.7759C8.771 27.2959 9.44141 27.625 10.1875 27.625H14.125C14.8711 27.625 15.5415 27.2959 16 26.7759C16.4585 27.2959 17.1289 27.625 17.875 27.625H21.8125C22.5586 27.625 23.229 27.2959 23.6875 26.7759C24.146 27.2959 24.8164 27.625 25.5625 27.625H29.5C29.9551 27.625 30.3821 27.5022 30.75 27.2886V30.75H18.8125C18.4673 30.75 18.1875 31.0298 18.1875 31.375C18.1875 31.7202 18.4673 32 18.8125 32H31.375C31.7202 32 32 31.7202 32 31.375C32 30.7537 32 16.3335 32 15.625C32 15.2798 31.7202 15 31.375 15ZM1.25 17.7896C1.61792 18.0029 2.04492 18.125 2.5 18.125H6.4375C7.18359 18.125 7.854 17.7959 8.3125 17.2759C8.771 17.7959 9.44141 18.125 10.1875 18.125H14.125C14.8711 18.125 15.5415 17.7959 16 17.2759C16.4585 17.7959 17.1289 18.125 17.875 18.125H21.8125C22.5586 18.125 23.229 17.7959 23.6875 17.2759C24.146 17.7959 24.8164 18.125 25.5625 18.125H29.5C29.9551 18.125 30.3821 18.0029 30.75 17.7896V20.375C30.75 21.0642 30.1892 21.625 29.5 21.625H25.5625C24.8733 21.625 24.3125 21.0642 24.3125 20.375C24.3125 20.0298 24.0327 19.75 23.6875 19.75C23.3423 19.75 23.0625 20.0298 23.0625 20.375C23.0625 21.0642 22.5017 21.625 21.8125 21.625H17.875C17.1858 21.625 16.625 21.0642 16.625 20.375C16.625 20.0298 16.3452 19.75 16 19.75C15.6548 19.75 15.375 20.0298 15.375 20.375C15.375 21.0642 14.8142 21.625 14.125 21.625H10.1875C9.49829 21.625 8.9375 21.0642 8.9375 20.375C8.9375 20.0298 8.65771 19.75 8.3125 19.75C7.96729 19.75 7.6875 20.0298 7.6875 20.375C7.6875 21.0642 7.12671 21.625 6.4375 21.625H2.5C1.81079 21.625 1.25 21.0642 1.25 20.375V17.7896ZM29.5 26.375H25.5625C24.8733 26.375 24.3125 25.8142 24.3125 25.125C24.3125 24.7798 24.0327 24.5 23.6875 24.5C23.3423 24.5 23.0625 24.7798 23.0625 25.125C23.0625 25.8142 22.5017 26.375 21.8125 26.375H17.875C17.1858 26.375 16.625 25.8142 16.625 25.125C16.625 24.7798 16.3452 24.5 16 24.5C15.6548 24.5 15.375 24.7798 15.375 25.125C15.375 25.8142 14.8142 26.375 14.125 26.375H10.1875C9.49829 26.375 8.9375 25.8142 8.9375 25.125C8.9375 24.7798 8.65771 24.5 8.3125 24.5C7.96729 24.5 7.6875 24.7798 7.6875 25.125C7.6875 25.8142 7.12671 26.375 6.4375 26.375H2.5C1.81079 26.375 1.25 25.8142 1.25 25.125V22.5386C1.61792 22.7522 2.04492 22.875 2.5 22.875H6.4375C7.18359 22.875 7.854 22.5459 8.3125 22.0259C8.771 22.5459 9.44141 22.875 10.1875 22.875H14.125C14.8711 22.875 15.5415 22.5459 16 22.0259C16.4585 22.5459 17.1289 22.875 17.875 22.875H21.8125C22.5586 22.875 23.229 22.5459 23.6875 22.0259C24.146 22.5459 24.8164 22.875 25.5625 22.875H29.5C29.9551 22.875 30.3821 22.7522 30.75 22.5386V25.125C30.75 25.8142 30.1892 26.375 29.5 26.375Z" fill="#00ACDD"/>
<path d="M16.625 31.375C16.625 31.7202 16.3452 32 16 32C15.6548 32 15.375 31.7202 15.375 31.375C15.375 31.0298 15.6548 30.75 16 30.75C16.3452 30.75 16.625 31.0298 16.625 31.375Z" fill="#00ACDD"/>
</svg>
