<svg width="32" height="32" viewBox="0 0 32 32" fill="none" xmlns="http://www.w3.org/2000/svg">
<g clip-path="url(#clip0_812_1416)">
<path d="M31.375 10.625H27.4375C27.0923 10.625 26.8125 10.9048 26.8125 11.25V13.125H24.3125V11.25C24.3125 10.9048 24.0327 10.625 23.6875 10.625H20.375V8.125H21.625C21.8665 8.125 22.0864 7.98584 22.1897 7.76758C22.2932 7.54932 22.2617 7.29102 22.1086 7.10425L16.4836 0.229248C16.365 0.0842285 16.1875 0 16 0C15.8125 0 15.635 0.0842285 15.5164 0.229248L9.89136 7.10425C9.73828 7.29102 9.70679 7.54932 9.8103 7.76758C9.91357 7.98584 10.1335 8.125 10.375 8.125H11.625V10.625H8.3125C7.96729 10.625 7.6875 10.9048 7.6875 11.25V13.125H5.1875V11.25C5.1875 10.9048 4.90771 10.625 4.5625 10.625H0.625C0.279785 10.625 0 10.9048 0 11.25V31.375C0 31.7202 0.279785 32 0.625 32H13.1875C13.5327 32 13.8125 31.7202 13.8125 31.375C13.8125 31.0298 13.5327 30.75 13.1875 30.75H1.25V27.2886C1.61792 27.5022 2.04492 27.625 2.5 27.625H6.4375C7.18359 27.625 7.854 27.2959 8.3125 26.7759C8.771 27.2959 9.44141 27.625 10.1875 27.625H14.125C14.8711 27.625 15.5415 27.2959 16 26.7759C16.4585 27.2959 17.1289 27.625 17.875 27.625H21.8125C22.5586 27.625 23.229 27.2959 23.6875 26.7759C24.146 27.2959 24.8164 27.625 25.5625 27.625H29.5C29.9551 27.625 30.3821 27.5022 30.75 27.2886V30.75H18.8125C18.4673 30.75 18.1875 31.0298 18.1875 31.375C18.1875 31.7202 18.4673 32 18.8125 32H31.375C31.7202 32 32 31.7202 32 31.375C32 30.7163 32 11.9709 32 11.25C32 10.9048 31.7202 10.625 31.375 10.625ZM16 1.61206L20.3062 6.875H11.6938L16 1.61206ZM19.125 8.125V13.125H16.625V11.25C16.625 10.9048 16.3452 10.625 16 10.625C15.6548 10.625 15.375 10.9048 15.375 11.25V13.125H12.875C12.875 12.218 12.875 9.7146 12.875 8.125H19.125ZM1.25 11.875H3.9375V13.75C3.9375 14.0952 4.21729 14.375 4.5625 14.375H8.3125C8.65771 14.375 8.9375 14.0952 8.9375 13.75V11.875H11.625V13.75C11.625 14.0952 11.9048 14.375 12.25 14.375H19.75C20.0952 14.375 20.375 14.0952 20.375 13.75V11.875H23.0625V13.75C23.0625 14.0952 23.3423 14.375 23.6875 14.375H27.4375C27.7827 14.375 28.0625 14.0952 28.0625 13.75V11.875H30.75V20C30.75 20.6892 30.1892 21.25 29.5 21.25H28.0625V18.125C28.0625 16.7466 26.9409 15.625 25.5625 15.625C24.1841 15.625 23.0625 16.7466 23.0625 18.125V20C23.0625 20.6892 22.5017 21.25 21.8125 21.25H18.5V18.125C18.5 16.7466 17.3784 15.625 16 15.625C14.6216 15.625 13.5 16.7466 13.5 18.125V21.25H10.1875C9.49829 21.25 8.9375 20.6892 8.9375 20V18.125C8.9375 16.7466 7.81592 15.625 6.4375 15.625C5.05908 15.625 3.9375 16.7466 3.9375 18.125V21.25H2.5C1.81079 21.25 1.25 20.6892 1.25 20V11.875ZM25.5625 21.25C24.8733 21.25 24.3125 20.6892 24.3125 20V18.125C24.3125 17.4358 24.8733 16.875 25.5625 16.875C26.2517 16.875 26.8125 17.4358 26.8125 18.125V21.25H25.5625ZM16.625 20C16.625 19.6548 16.3452 19.375 16 19.375C15.6548 19.375 15.375 19.6548 15.375 20C15.375 20.4614 15.123 20.8643 14.75 21.0808V18.125C14.75 17.4358 15.3108 16.875 16 16.875C16.6892 16.875 17.25 17.4358 17.25 18.125V21.0808C16.877 20.8643 16.625 20.4614 16.625 20ZM7.6875 20C7.6875 20.6892 7.12671 21.25 6.4375 21.25H5.1875V18.125C5.1875 17.4358 5.74829 16.875 6.4375 16.875C7.12671 16.875 7.6875 17.4358 7.6875 18.125V20ZM29.5 26.375H25.5625C24.8733 26.375 24.3125 25.8142 24.3125 25.125C24.3125 24.7798 24.0327 24.5 23.6875 24.5C23.3423 24.5 23.0625 24.7798 23.0625 25.125C23.0625 25.8142 22.5017 26.375 21.8125 26.375H17.875C17.1858 26.375 16.625 25.8142 16.625 25.125C16.625 24.7798 16.3452 24.5 16 24.5C15.6548 24.5 15.375 24.7798 15.375 25.125C15.375 25.8142 14.8142 26.375 14.125 26.375H10.1875C9.49829 26.375 8.9375 25.8142 8.9375 25.125C8.9375 24.7798 8.65771 24.5 8.3125 24.5C7.96729 24.5 7.6875 24.7798 7.6875 25.125C7.6875 25.8142 7.12671 26.375 6.4375 26.375H2.5C1.81079 26.375 1.25 25.8142 1.25 25.125V22.1636C1.61792 22.3772 2.04492 22.5 2.5 22.5H6.4375C7.18359 22.5 7.854 22.1709 8.3125 21.6509C8.771 22.1709 9.44141 22.5 10.1875 22.5H14.125C14.8708 22.5 15.5415 22.1716 16 21.6519C16.4585 22.1716 17.1292 22.5 17.875 22.5H21.8125C22.5586 22.5 23.229 22.1709 23.6875 21.6509C24.146 22.1709 24.8164 22.5 25.5625 22.5H29.5C29.9551 22.5 30.3821 22.3779 30.75 22.1646V25.125C30.75 25.8142 30.1892 26.375 29.5 26.375Z" fill="#00ACDD"/>
<path d="M16.625 31.375C16.625 31.7202 16.3452 32 16 32C15.6548 32 15.375 31.7202 15.375 31.375C15.375 31.0298 15.6548 30.75 16 30.75C16.3452 30.75 16.625 31.0298 16.625 31.375Z" fill="#00ACDD"/>
</g>
<defs>
<clipPath id="clip0_812_1416">
<rect width="32" height="32" fill="white"/>
</clipPath>
</defs>
</svg>
