<svg width="32" height="32" viewBox="0 0 32 32" fill="none" xmlns="http://www.w3.org/2000/svg">
<path d="M14.75 17.875C14.75 17.1108 14.5476 16.355 14.1643 15.688L10.9163 10.063C10.8047 9.86963 10.5984 9.75073 10.375 9.75073C10.1519 9.75073 9.94556 9.86963 9.83374 10.063L6.5813 15.6931C6.20093 16.3577 6 17.1121 6 17.875C6 20.2874 7.96265 22.25 10.375 22.25C12.7874 22.25 14.75 20.2874 14.75 17.875ZM7.25 17.875C7.25 17.3296 7.3938 16.7898 7.66504 16.3164L10.3748 11.6252L13.0813 16.312C13.3552 16.7886 13.5 17.3291 13.5 17.875C13.5 19.5981 12.0981 21 10.375 21C8.65186 21 7.25 19.5981 7.25 17.875Z" fill="#00ACDD"/>
<path d="M19.75 14.75C20.0952 14.75 20.375 14.4702 20.375 14.125V12.25C20.375 11.9048 20.0952 11.625 19.75 11.625C19.4048 11.625 19.125 11.9048 19.125 12.25V14.125C19.125 14.4702 19.4048 14.75 19.75 14.75Z" fill="#00ACDD"/>
<path d="M19.125 19.75C19.125 20.0952 19.4048 20.375 19.75 20.375C20.0952 20.375 20.375 20.0952 20.375 19.75V17.875C20.375 17.5298 20.0952 17.25 19.75 17.25C19.4048 17.25 19.125 17.5298 19.125 17.875V19.75Z" fill="#00ACDD"/>
<path d="M23.5 12.875H27.25C27.5952 12.875 27.875 12.5952 27.875 12.25C27.875 11.9048 27.5952 11.625 27.25 11.625H23.5C23.1548 11.625 22.875 11.9048 22.875 12.25C22.875 12.5952 23.1548 12.875 23.5 12.875Z" fill="#00ACDD"/>
<path d="M23.5 16.625H27.25C27.5952 16.625 27.875 16.3452 27.875 16C27.875 15.6548 27.5952 15.375 27.25 15.375H23.5C23.1548 15.375 22.875 15.6548 22.875 16C22.875 16.3452 23.1548 16.625 23.5 16.625Z" fill="#00ACDD"/>
<path d="M23.5 20.375H27.25C27.5952 20.375 27.875 20.0952 27.875 19.75C27.875 19.4048 27.5952 19.125 27.25 19.125H23.5C23.1548 19.125 22.875 19.4048 22.875 19.75C22.875 20.0952 23.1548 20.375 23.5 20.375Z" fill="#00ACDD"/>
<path d="M1.25 16.625C1.25 16.9702 0.970215 17.25 0.625 17.25C0.279785 17.25 0 16.9702 0 16.625C0 16.2798 0.279785 16 0.625 16C0.970215 16 1.25 16.2798 1.25 16.625Z" fill="#00ACDD"/>
<path d="M1.875 26H23.5C23.8452 26 24.125 25.7202 24.125 25.375C24.125 24.6858 24.6858 24.125 25.375 24.125C26.0642 24.125 26.625 24.6858 26.625 25.375C26.625 25.7202 26.9048 26 27.25 26H30.125C31.1589 26 32 25.1589 32 24.125V7.875C32 6.84106 31.1589 6 30.125 6H27.25C26.9048 6 26.625 6.27979 26.625 6.625C26.625 7.31421 26.0642 7.875 25.375 7.875C24.6858 7.875 24.125 7.31421 24.125 6.625C24.125 6.27979 23.8452 6 23.5 6H1.875C0.841064 6 0 6.84106 0 7.875V13.8125C0 14.1577 0.279785 14.4375 0.625 14.4375C0.970215 14.4375 1.25 14.1577 1.25 13.8125V7.875C1.25 7.53027 1.53027 7.25 1.875 7.25H19.125V8.5C19.125 8.84521 19.4048 9.125 19.75 9.125C20.0952 9.125 20.375 8.84521 20.375 8.5V7.25H22.9541C23.2324 8.32715 24.2122 9.125 25.375 9.125C26.5378 9.125 27.5176 8.32715 27.7959 7.25H30.125C30.4697 7.25 30.75 7.53027 30.75 7.875V24.125C30.75 24.4697 30.4697 24.75 30.125 24.75H27.7959C27.5176 23.6729 26.5378 22.875 25.375 22.875C24.2122 22.875 23.2324 23.6729 22.9541 24.75H20.375V23.5C20.375 23.1548 20.0952 22.875 19.75 22.875C19.4048 22.875 19.125 23.1548 19.125 23.5V24.75H1.875C1.53027 24.75 1.25 24.4697 1.25 24.125V19.4375C1.25 19.0925 0.970215 18.8125 0.625 18.8125C0.279785 18.8125 0 19.0925 0 19.4375V24.125C0 25.1589 0.841064 26 1.875 26Z" fill="#00ACDD"/>
</svg>
