<svg width="32" height="32" viewBox="0 0 32 32" fill="none" xmlns="http://www.w3.org/2000/svg">
<g clip-path="url(#clip0_812_1428)">
<path d="M16.5625 8.12476C16.5625 8.64258 16.1428 9.06226 15.625 9.06226C15.1072 9.06226 14.6875 8.64258 14.6875 8.12476C14.6875 7.60718 15.1072 7.18726 15.625 7.18726C16.1428 7.18726 16.5625 7.60718 16.5625 8.12476Z" fill="#00ACDD"/>
<path d="M1.87592 5.15186V7.35059C1.383 8.12012 0.979196 8.94385 0.676706 9.80347C0.56196 10.1292 0.733102 10.4858 1.05879 10.6006C1.38447 10.7151 1.74116 10.5439 1.85566 10.2185C3.32197 6.05176 7.28462 3.125 11.8757 3.125C15.6665 3.125 18.7507 6.20898 18.7507 9.99976C18.7507 10.345 19.0305 10.6248 19.3757 10.6248H21.2507C21.9399 10.6248 22.5004 11.1855 22.5004 11.8748C22.5004 12.564 21.9399 13.1248 21.2507 13.1248H12.8132C12.466 13.1248 12.1215 13.1592 11.7836 13.2256C11.3293 12.5344 10.6843 11.979 9.92695 11.6365C9.6125 11.4944 9.24214 11.634 9.10005 11.9485C8.95796 12.2629 9.09736 12.6333 9.41206 12.7756C10.0632 13.0698 10.5986 13.5842 10.9199 14.2234C11.1394 14.6606 11.2507 15.1321 11.2507 15.6248V16.8748H10.0007C9.508 16.8748 9.03657 16.7634 8.59956 16.5437C7.96015 16.2224 7.44599 15.687 7.15156 15.0359C7.00923 14.7214 6.63911 14.5818 6.32466 14.7239C6.0102 14.8662 5.87031 15.2366 6.01264 15.551C6.35517 16.3083 6.91035 16.9531 7.60175 17.4075C7.5351 17.7456 7.50092 18.0901 7.50092 18.4373C7.50092 21.3665 9.88398 23.7495 12.8132 23.7495H14.0952C14.3596 23.7495 14.5954 23.5833 14.684 23.334C15.2578 21.7202 16.6018 20.5347 18.205 20.1414C16.6545 23.1985 16.6545 26.8008 18.205 29.8579C16.6018 29.4644 15.2578 28.2791 14.684 26.6653C14.5954 26.416 14.3596 26.2498 14.0952 26.2498H13.1901C7.02339 26.2498 1.91792 21.6284 1.31465 15.5002C1.28071 15.1567 0.974557 14.9055 0.631296 14.9397C0.28779 14.9734 0.0368132 15.2793 0.0705046 15.6228C0.728708 22.3062 6.36543 27.4995 13.1901 27.4995H13.6708C14.6603 29.7598 16.8996 31.2495 19.3757 31.2495C19.6061 31.2495 19.8178 31.1226 19.9267 30.9194C20.0353 30.7163 20.0234 30.4695 19.8957 30.2778C17.7582 27.0713 17.7582 22.9277 19.8957 19.7214C20.0234 19.5295 20.0353 19.283 19.9267 19.0798C19.8178 18.8765 19.6061 18.7498 19.3757 18.7498C16.8996 18.7498 14.6603 20.2395 13.6708 22.4995H12.8132C10.5732 22.4995 8.75068 20.6772 8.75068 18.4373C8.75068 18.2744 8.76093 18.1125 8.77998 17.9521C9.17353 18.0667 9.58173 18.1248 10.0007 18.1248H11.8757C12.2209 18.1248 12.5007 17.845 12.5007 17.4998V15.6248C12.5007 15.2056 12.4426 14.7974 12.3283 14.4041C12.4887 14.3848 12.6506 14.3748 12.8132 14.3748H21.2507C22.6291 14.3748 23.7504 13.2532 23.7504 11.8748C23.7504 10.4963 22.6291 9.37476 21.2507 9.37476H19.9768C19.6567 5.18579 16.1455 1.875 11.8757 1.875C10.833 1.875 9.80024 2.01074 8.80024 2.27808C8.72114 2.20703 8.6435 2.13379 8.56782 2.05811C7.24067 0.730957 5.47602 0 3.59907 0H0.625925C0.373239 0 0.145212 0.152344 0.048532 0.385986C-0.0481477 0.619385 0.00531907 0.888184 0.18403 1.06689C1.27509 2.15796 1.87592 3.60864 1.87592 5.15186ZM3.59907 1.25C5.03681 1.25 6.39424 1.77222 7.45551 2.72607C5.80757 3.38843 4.32636 4.41626 3.12592 5.7251V5.15186C3.12592 3.74194 2.71357 2.39526 1.94575 1.25H3.59907Z" fill="#00ACDD"/>
<path d="M25.0799 27.7321L22.4283 30.3832C22.1841 30.6273 22.1841 31.0231 22.428 31.2672C22.6721 31.5114 23.0677 31.5114 23.3118 31.2672C24.5308 30.049 26.5135 30.049 27.7315 31.267C28.708 32.2443 30.2903 32.2445 31.2666 31.2675C32.2442 30.2907 32.2442 28.7089 31.2666 27.7321C29.5608 26.0265 26.7854 26.0265 25.0799 27.7321ZM30.3828 28.6161H30.3831C30.8653 29.098 30.8777 29.889 30.3828 30.3834C30.147 30.6195 29.833 30.7496 29.4993 30.7496C29.1653 30.7496 28.8518 30.6195 28.6155 30.3832C27.7627 29.5304 26.6426 29.1041 25.522 29.1041C25.5064 29.1041 25.4908 29.1041 25.4751 29.1044L25.9637 28.6161C27.1822 27.3976 29.1646 27.3976 30.3828 28.6161Z" fill="#00ACDD"/>
<path d="M25.308 24.2096C25.0639 24.4537 25.0639 24.8495 25.308 25.0936C25.5522 25.3375 25.9479 25.3375 26.1921 25.0936L28.8437 22.4418C30.5495 20.736 30.5495 17.9606 28.8437 16.2548C27.8691 15.2802 26.2829 15.2799 25.3083 16.2545C24.3312 17.2308 24.3305 18.8129 25.308 19.7897C26.5263 21.0087 26.5263 22.9913 25.308 24.2096ZM26.1918 17.1388C26.6794 16.6512 27.4724 16.6512 27.9599 17.1388C29.1782 18.3571 29.1782 20.3395 27.9599 21.558L27.4709 22.047C27.4828 20.911 27.0566 19.7709 26.1918 18.9059C25.7033 18.4178 25.7028 17.6271 26.1918 17.1388Z" fill="#00ACDD"/>
<path d="M1.25 12.7498C1.25 13.095 0.970215 13.3748 0.625 13.3748C0.279785 13.3748 0 13.095 0 12.7498C0 12.4045 0.279785 12.1248 0.625 12.1248C0.970215 12.1248 1.25 12.4045 1.25 12.7498Z" fill="#00ACDD"/>
</g>
<defs>
<clipPath id="clip0_812_1428">
<rect width="32" height="32" fill="white"/>
</clipPath>
</defs>
</svg>
