<svg width="32" height="32" viewBox="0 0 32 32" fill="none" xmlns="http://www.w3.org/2000/svg">
<g clip-path="url(#clip0_812_1406)">
<path d="M2.5 31.9998H6.77002C7.02563 31.9998 7.25537 31.8443 7.35034 31.607L10.1931 24.4998H16.1875C17.5659 24.4998 18.6875 23.3783 18.6875 21.9998C18.6875 21.1312 18.3611 20.849 16.1306 15.1248H21.375V31.3748C21.375 31.72 21.6548 31.9998 22 31.9998C22.3452 31.9998 22.625 31.72 22.625 31.3748V30.1248H28.875V31.3748C28.875 31.72 29.1548 31.9998 29.5 31.9998C29.8452 31.9998 30.125 31.72 30.125 31.3748C30.125 29.3468 30.125 7.78767 30.125 6.87483H31.375C31.7202 6.87483 32 6.59505 32 6.24983C32 3.97835 30.7649 1.88264 28.7769 0.780349C28.4751 0.613113 28.0945 0.721999 27.9272 1.024C27.7598 1.32576 27.8689 1.70637 28.1707 1.87361C29.5774 2.6534 30.5129 4.05452 30.7107 5.62483H20.7893C20.9871 4.05452 21.9226 2.6534 23.3293 1.87361C23.6311 1.70613 23.7402 1.32576 23.5728 1.024C23.4055 0.721999 23.0251 0.613113 22.7231 0.780349C20.7351 1.88264 19.5 3.97835 19.5 6.24983C19.5 6.59505 19.7798 6.87483 20.125 6.87483H21.375V10.1248H12.4375C11.0591 10.1248 9.9375 11.2464 9.9375 12.6248C9.9375 13.4976 10.29 13.8443 12.4944 19.4998H8.5C7.4541 19.4998 6.55298 20.1344 6.17847 21.0709L3.80688 26.9998H2.5C1.12158 26.9998 0 28.1214 0 29.4998C0 30.8783 1.12158 31.9998 2.5 31.9998ZM22.625 18.8748H28.875V21.3748H22.625V18.8748ZM22.625 22.6248H28.875V25.1248H22.625V22.6248ZM28.875 17.6248H22.625V15.1248H28.875V17.6248ZM22.625 28.8748V26.3748H28.875V28.8748H22.625ZM28.875 6.87483V13.8748H22.625V6.87483H28.875ZM12.4375 11.3748H21.375V13.8748C20.4177 13.8748 13.4417 13.8748 12.4375 13.8748C11.7319 13.8748 11.1875 13.3026 11.1875 12.6248C11.1875 11.9356 11.7483 11.3748 12.4375 11.3748ZM12.0806 15.0994C12.1975 15.116 12.3167 15.1248 12.4375 15.1248H14.7844L16.5447 19.5257C16.4275 19.5089 16.3083 19.4998 16.1875 19.4998H13.8406L12.0806 15.0994ZM8.5 20.7498H16.1875C16.8857 20.7498 17.4375 21.3162 17.4375 21.9998C17.4375 22.689 16.8767 23.2498 16.1875 23.2498H8.5C7.81079 23.2498 7.25 22.689 7.25 21.9998C7.25 21.3153 7.80029 20.7498 8.5 20.7498ZM2.5 28.2498H4.22998C4.4856 28.2498 4.71533 28.0943 4.8103 27.857L6.53564 23.5435C6.9939 24.1253 7.70386 24.4998 8.5 24.4998H8.84692L6.34692 30.7498H2.5C1.81079 30.7498 1.25 30.189 1.25 29.4998C1.25 28.8106 1.81079 28.2498 2.5 28.2498Z" fill="#00ACDD"/>
<path d="M26.375 0.625C26.375 0.970215 26.0952 1.25 25.75 1.25C25.4048 1.25 25.125 0.970215 25.125 0.625C25.125 0.279785 25.4048 0 25.75 0C26.0952 0 26.375 0.279785 26.375 0.625Z" fill="#00ACDD"/>
</g>
<defs>
<clipPath id="clip0_812_1406">
<rect width="32" height="32" fill="white"/>
</clipPath>
</defs>
</svg>
